<svg width="307" height="134" viewBox="0 0 307 134" fill="none" xmlns="http://www.w3.org/2000/svg">
<rect width="307" height="134" fill="white"></rect>
<rect x="53" y="31" width="41" height="74" rx="20.5" fill="#D9D9D9"></rect>
<rect x="53" y="31" width="41" height="74" rx="20.5" fill="url(#paint0_linear_7145_7152)"></rect>
<path d="M14 64C14 57.4 19.4 52.3 26.1 52.3C29.5 52.3 32.8 53.7 35.2 56.1L70.1 91C73.1 94 77.1 95.7001 81.4 95.7001C88.4 95.7001 94 90.1 94 83.1V89.4C94 100.5 85 109.5 73.9 109.5C68.5 109.5 64.6 106.6 61.2 103.2L30.8 72.8C28.2 70.2 24.3 70.7 22.7 73.8L14 64ZM14 64L22.7 73.8C24.3 70.7 28.2 70.2 30.8 72.8L52.5 100.7C47.7 106.2 40.9 109.5 33.4 109.5C22.7 109.5 14 100.8 14 90.1V64Z" fill="url(#paint1_linear_7145_7152)"></path>
<g filter="url(#filter0_d_7145_7152)">
<path d="M14 48.2C14 38.4 21.9 30.5 31.8 30.5C35.7 30.5 39.5 32 42.3 34.8L81.3 73.8C84.2 76.7 88.4 78.1 92.4 77.3C93.1 77.16 93.65 76.92 94 76.68C94 78.75 94 80.25 94 83.1C94 90.6 88.5 96 80 96C75.9 96 70.4 94.7 67.5 91.8L35.2 59.5C32.8 57.1 29.5 55.7 26.1 55.7C19.4 55.7 14 61.1 14 67.8V48.2Z" fill="url(#paint2_linear_7145_7152)"></path>
</g>
<path d="M45.5 35L72.3543 61.8695C74.7486 64.5082 77.6934 65.3157 79.425 63.4149C80.5389 62.2045 80.8269 60.3888 80.7116 58.4333L80.2217 50.1226" stroke="white" stroke-width="4.5"></path>
<path d="M80 55C82.7614 55 85 52.7614 85 50C85 47.2386 82.7614 45 80 45C77.2386 45 75 47.2386 75 50C75 52.7614 77.2386 55 80 55Z" fill="white"></path>
<path d="M27.75 87.1001V75.2501C27.75 73.0001 29.4 71.7001 31.2 71.7001C32.1 71.7001 34.85 75.81 35.5 76.5L54.96 99.8" stroke="white" stroke-width="4.3" stroke-linecap="square"></path>
<path d="M27.75 93.15C30.5114 93.15 32.75 90.9114 32.75 88.15C32.75 85.3886 30.5114 83.15 27.75 83.15C24.9886 83.15 22.75 85.3886 22.75 88.15C22.75 90.9114 24.9886 93.15 27.75 93.15Z" fill="white"></path>
<path d="M133.017 42.58C137.277 42.58 140.577 43.48 142.917 45.28C145.257 47.02 146.877 49.39 147.777 52.39C148.737 55.33 149.217 58.63 149.217 62.29V86.41C149.217 87.73 148.767 88.84 147.867 89.74C147.027 90.58 145.977 91 144.717 91C143.397 91 142.317 90.58 141.477 89.74C140.637 88.84 140.217 87.73 140.217 86.41V62.38C140.217 60.22 139.917 58.3 139.317 56.62C138.717 54.88 137.667 53.5 136.167 52.48C134.727 51.4 132.687 50.86 130.047 50.86C127.587 50.86 125.427 51.4 123.567 52.48C121.707 53.5 120.237 54.88 119.157 56.62C118.137 58.3 117.627 60.22 117.627 62.38V86.41C117.627 87.73 117.177 88.84 116.277 89.74C115.437 90.58 114.387 91 113.127 91C111.807 91 110.727 90.58 109.887 89.74C109.047 88.84 108.627 87.73 108.627 86.41V48.25C108.627 46.93 109.047 45.85 109.887 45.01C110.727 44.11 111.807 43.66 113.127 43.66C114.387 43.66 115.437 44.11 116.277 45.01C117.177 45.85 117.627 46.93 117.627 48.25V53.29L116.007 54.19C116.427 52.87 117.147 51.55 118.167 50.23C119.247 48.85 120.537 47.59 122.037 46.45C123.537 45.25 125.217 44.32 127.077 43.66C128.937 42.94 130.917 42.58 133.017 42.58ZM183.763 91.9C178.783 91.9 174.463 90.88 170.803 88.84C167.143 86.74 164.293 83.89 162.253 80.29C160.273 76.63 159.283 72.46 159.283 67.78C159.283 62.5 160.333 58 162.433 54.28C164.593 50.5 167.383 47.62 170.803 45.64C174.223 43.6 177.853 42.58 181.693 42.58C184.633 42.58 187.423 43.18 190.063 44.38C192.703 45.52 195.043 47.14 197.083 49.24C199.183 51.28 200.833 53.71 202.033 56.53C203.233 59.29 203.863 62.32 203.923 65.62C203.863 66.82 203.383 67.81 202.483 68.59C201.583 69.37 200.533 69.76 199.333 69.76H164.323L162.163 62.11H196.003L194.293 63.73V61.48C194.173 59.38 193.483 57.55 192.223 55.99C190.963 54.37 189.403 53.14 187.543 52.3C185.683 51.4 183.733 50.95 181.693 50.95C179.893 50.95 178.153 51.25 176.473 51.85C174.853 52.39 173.383 53.29 172.063 54.55C170.803 55.81 169.783 57.49 169.003 59.59C168.283 61.63 167.923 64.18 167.923 67.24C167.923 70.54 168.613 73.42 169.993 75.88C171.373 78.34 173.233 80.26 175.573 81.64C177.913 82.96 180.493 83.62 183.313 83.62C185.533 83.62 187.363 83.41 188.803 82.99C190.243 82.51 191.443 81.94 192.403 81.28C193.363 80.62 194.203 79.99 194.923 79.39C195.823 78.85 196.723 78.58 197.623 78.58C198.703 78.58 199.603 78.97 200.323 79.75C201.043 80.47 201.403 81.34 201.403 82.36C201.403 83.68 200.743 84.88 199.423 85.96C197.803 87.52 195.553 88.9 192.673 90.1C189.853 91.3 186.883 91.9 183.763 91.9ZM214.1 43.39C215.6 43.39 216.83 44.02 217.79 45.28L248.48 83.98C249.14 84.76 249.47 85.66 249.47 86.68C249.47 87.88 248.99 88.93 248.03 89.83C247.07 90.73 246.02 91.18 244.88 91.18C243.44 91.18 242.21 90.55 241.19 89.29L210.5 50.59C209.84 49.81 209.51 48.91 209.51 47.89C209.51 46.63 209.96 45.58 210.86 44.74C211.82 43.84 212.9 43.39 214.1 43.39ZM214.19 91.18C213.17 91.18 212.18 90.79 211.22 90.01C210.26 89.23 209.78 88.27 209.78 87.13C209.78 86.11 210.14 85.18 210.86 84.34L225.17 66.61L229.76 73.99L217.79 89.29C216.83 90.55 215.63 91.18 214.19 91.18ZM244.79 43.39C246.05 43.39 247.07 43.81 247.85 44.65C248.69 45.43 249.11 46.36 249.11 47.44C249.11 47.92 249.02 48.43 248.84 48.97C248.72 49.45 248.45 49.9 248.03 50.32L233.9 68.05L229.22 61.39L241.19 45.46C242.21 44.08 243.41 43.39 244.79 43.39ZM302.786 67.33C302.786 72.13 301.736 76.39 299.636 80.11C297.536 83.77 294.686 86.65 291.086 88.75C287.486 90.85 283.436 91.9 278.936 91.9C274.436 91.9 270.386 90.85 266.786 88.75C263.186 86.65 260.306 83.77 258.146 80.11C256.046 76.39 254.996 72.13 254.996 67.33C254.996 62.47 256.046 58.21 258.146 54.55C260.306 50.83 263.186 47.92 266.786 45.82C270.386 43.66 274.436 42.58 278.936 42.58C283.436 42.58 287.486 43.66 291.086 45.82C294.686 47.92 297.536 50.83 299.636 54.55C301.736 58.21 302.786 62.47 302.786 67.33ZM293.786 67.33C293.786 64.03 293.126 61.18 291.806 58.78C290.486 56.32 288.686 54.4 286.406 53.02C284.186 51.58 281.696 50.86 278.936 50.86C276.176 50.86 273.656 51.58 271.376 53.02C269.096 54.4 267.296 56.32 265.976 58.78C264.656 61.18 263.996 64.03 263.996 67.33C263.996 70.51 264.656 73.33 265.976 75.79C267.296 78.25 269.096 80.17 271.376 81.55C273.656 82.93 276.176 83.62 278.936 83.62C281.696 83.62 284.186 82.93 286.406 81.55C288.686 80.17 290.486 78.25 291.806 75.79C293.126 73.33 293.786 70.51 293.786 67.33Z" fill="url(#paint3_linear_7145_7152)"></path>
<path d="M113.935 101.05C114.615 101.05 115.225 101.225 115.765 101.575C116.305 101.915 116.73 102.385 117.04 102.985C117.36 103.585 117.52 104.28 117.52 105.07C117.52 105.86 117.36 106.56 117.04 107.17C116.73 107.78 116.305 108.265 115.765 108.625C115.235 108.975 114.635 109.15 113.965 109.15C113.595 109.15 113.245 109.095 112.915 108.985C112.595 108.865 112.3 108.71 112.03 108.52C111.77 108.32 111.55 108.105 111.37 107.875C111.19 107.635 111.06 107.4 110.98 107.17L111.31 106.96V108.46C111.31 108.63 111.255 108.775 111.145 108.895C111.035 109.015 110.89 109.075 110.71 109.075C110.54 109.075 110.395 109.02 110.275 108.91C110.165 108.79 110.11 108.64 110.11 108.46V98.515C110.11 98.345 110.165 98.2 110.275 98.08C110.395 97.96 110.54 97.9 110.71 97.9C110.89 97.9 111.035 97.96 111.145 98.08C111.255 98.2 111.31 98.345 111.31 98.515V103.135L111.085 103.015C111.155 102.765 111.275 102.525 111.445 102.295C111.625 102.055 111.84 101.845 112.09 101.665C112.35 101.475 112.635 101.325 112.945 101.215C113.265 101.105 113.595 101.05 113.935 101.05ZM113.8 102.16C113.3 102.16 112.855 102.285 112.465 102.535C112.085 102.785 111.785 103.13 111.565 103.57C111.355 104.01 111.25 104.51 111.25 105.07C111.25 105.63 111.355 106.135 111.565 106.585C111.785 107.035 112.085 107.39 112.465 107.65C112.855 107.91 113.3 108.04 113.8 108.04C114.3 108.04 114.74 107.91 115.12 107.65C115.5 107.39 115.8 107.035 116.02 106.585C116.24 106.135 116.35 105.63 116.35 105.07C116.35 104.51 116.24 104.01 116.02 103.57C115.8 103.13 115.5 102.785 115.12 102.535C114.74 102.285 114.3 102.16 113.8 102.16ZM125.129 101.125C125.299 101.125 125.439 101.185 125.549 101.305C125.669 101.415 125.729 101.555 125.729 101.725V108.265C125.729 109.105 125.564 109.8 125.234 110.35C124.904 110.91 124.459 111.325 123.899 111.595C123.349 111.865 122.724 112 122.024 112C121.634 112 121.259 111.96 120.899 111.88C120.539 111.8 120.244 111.695 120.014 111.565C119.824 111.475 119.689 111.36 119.609 111.22C119.539 111.09 119.529 110.95 119.579 110.8C119.649 110.62 119.749 110.495 119.879 110.425C120.019 110.355 120.164 110.355 120.314 110.425C120.474 110.495 120.704 110.59 121.004 110.71C121.314 110.84 121.659 110.905 122.039 110.905C122.559 110.905 123.004 110.805 123.374 110.605C123.744 110.405 124.029 110.11 124.229 109.72C124.429 109.34 124.529 108.865 124.529 108.295V107.23L124.709 107.605C124.549 107.915 124.334 108.185 124.064 108.415C123.794 108.645 123.484 108.825 123.134 108.955C122.784 109.085 122.399 109.15 121.979 109.15C121.409 109.15 120.924 109.03 120.524 108.79C120.134 108.54 119.834 108.2 119.624 107.77C119.424 107.33 119.324 106.825 119.324 106.255V101.725C119.324 101.555 119.379 101.415 119.489 101.305C119.609 101.185 119.754 101.125 119.924 101.125C120.104 101.125 120.249 101.185 120.359 101.305C120.469 101.415 120.524 101.555 120.524 101.725V105.985C120.524 106.665 120.674 107.18 120.974 107.53C121.274 107.87 121.739 108.04 122.369 108.04C122.769 108.04 123.129 107.95 123.449 107.77C123.779 107.59 124.039 107.345 124.229 107.035C124.429 106.715 124.529 106.365 124.529 105.985V101.725C124.529 101.555 124.584 101.415 124.694 101.305C124.804 101.185 124.949 101.125 125.129 101.125ZM136.403 98.5C136.953 98.5 137.448 98.635 137.888 98.905C138.328 99.175 138.673 99.545 138.923 100.015C139.183 100.485 139.313 101.02 139.313 101.62C139.313 102.21 139.183 102.745 138.923 103.225C138.673 103.705 138.328 104.085 137.888 104.365C137.448 104.645 136.953 104.785 136.403 104.785H133.358L133.463 104.605V108.385C133.463 108.555 133.408 108.7 133.298 108.82C133.188 108.94 133.048 109 132.878 109C132.698 109 132.553 108.94 132.443 108.82C132.343 108.7 132.293 108.555 132.293 108.385V99.1C132.293 98.93 132.348 98.79 132.458 98.68C132.578 98.56 132.723 98.5 132.893 98.5H136.403ZM136.403 103.63C136.733 103.63 137.023 103.54 137.273 103.36C137.523 103.18 137.723 102.935 137.873 102.625C138.023 102.315 138.098 101.98 138.098 101.62C138.098 101.24 138.023 100.905 137.873 100.615C137.723 100.325 137.523 100.095 137.273 99.925C137.023 99.745 136.733 99.655 136.403 99.655H133.358L133.463 99.49V103.78L133.358 103.63H136.403ZM142.382 108.385C142.382 108.555 142.322 108.7 142.202 108.82C142.082 108.94 141.937 109 141.767 109C141.597 109 141.457 108.94 141.347 108.82C141.237 108.7 141.182 108.555 141.182 108.385V98.5C141.182 98.33 141.237 98.19 141.347 98.08C141.467 97.96 141.612 97.9 141.782 97.9C141.962 97.9 142.107 97.96 142.217 98.08C142.327 98.19 142.382 98.33 142.382 98.5V108.385ZM151.1 101.17C151.27 101.17 151.41 101.23 151.52 101.35C151.64 101.46 151.7 101.6 151.7 101.77V108.385C151.7 108.555 151.64 108.7 151.52 108.82C151.41 108.94 151.27 109 151.1 109C150.92 109 150.775 108.94 150.665 108.82C150.555 108.7 150.5 108.555 150.5 108.385V106.96L150.785 106.93C150.785 107.15 150.71 107.39 150.56 107.65C150.41 107.91 150.205 108.155 149.945 108.385C149.685 108.605 149.375 108.79 149.015 108.94C148.665 109.08 148.285 109.15 147.875 109.15C147.195 109.15 146.585 108.975 146.045 108.625C145.505 108.265 145.075 107.78 144.755 107.17C144.445 106.56 144.29 105.865 144.29 105.085C144.29 104.295 144.445 103.6 144.755 103C145.075 102.39 145.505 101.915 146.045 101.575C146.585 101.225 147.185 101.05 147.845 101.05C148.275 101.05 148.675 101.12 149.045 101.26C149.415 101.4 149.735 101.59 150.005 101.83C150.285 102.07 150.5 102.335 150.65 102.625C150.81 102.915 150.89 103.205 150.89 103.495L150.5 103.405V101.77C150.5 101.6 150.555 101.46 150.665 101.35C150.775 101.23 150.92 101.17 151.1 101.17ZM148.01 108.04C148.51 108.04 148.95 107.91 149.33 107.65C149.72 107.39 150.02 107.04 150.23 106.6C150.45 106.15 150.56 105.645 150.56 105.085C150.56 104.535 150.45 104.04 150.23 103.6C150.02 103.15 149.72 102.8 149.33 102.55C148.95 102.29 148.51 102.16 148.01 102.16C147.52 102.16 147.08 102.285 146.69 102.535C146.31 102.785 146.01 103.13 145.79 103.57C145.57 104.01 145.46 104.515 145.46 105.085C145.46 105.645 145.565 106.15 145.775 106.6C145.995 107.04 146.295 107.39 146.675 107.65C147.065 107.91 147.51 108.04 148.01 108.04ZM157.778 101.05C158.458 101.05 158.993 101.19 159.383 101.47C159.773 101.75 160.048 102.125 160.208 102.595C160.378 103.065 160.463 103.59 160.463 104.17V108.385C160.463 108.555 160.403 108.7 160.283 108.82C160.173 108.94 160.033 109 159.863 109C159.693 109 159.548 108.94 159.428 108.82C159.318 108.7 159.263 108.555 159.263 108.385V104.2C159.263 103.82 159.203 103.48 159.083 103.18C158.973 102.87 158.783 102.625 158.513 102.445C158.253 102.255 157.893 102.16 157.433 102.16C157.013 102.16 156.628 102.255 156.278 102.445C155.928 102.625 155.648 102.87 155.438 103.18C155.228 103.48 155.123 103.82 155.123 104.2V108.385C155.123 108.555 155.063 108.7 154.943 108.82C154.833 108.94 154.693 109 154.523 109C154.353 109 154.208 108.94 154.088 108.82C153.978 108.7 153.923 108.555 153.923 108.385V101.845C153.923 101.675 153.978 101.535 154.088 101.425C154.208 101.305 154.353 101.245 154.523 101.245C154.703 101.245 154.848 101.305 154.958 101.425C155.068 101.535 155.123 101.675 155.123 101.845V102.91L154.823 103.24C154.873 102.98 154.988 102.72 155.168 102.46C155.348 102.19 155.573 101.95 155.843 101.74C156.113 101.53 156.413 101.365 156.743 101.245C157.073 101.115 157.418 101.05 157.778 101.05ZM166.268 109.15C165.468 109.15 164.768 108.98 164.168 108.64C163.568 108.3 163.098 107.835 162.758 107.245C162.428 106.645 162.263 105.955 162.263 105.175C162.263 104.305 162.433 103.565 162.773 102.955C163.123 102.335 163.573 101.865 164.123 101.545C164.683 101.215 165.273 101.05 165.893 101.05C166.353 101.05 166.798 101.135 167.228 101.305C167.658 101.475 168.038 101.725 168.368 102.055C168.698 102.375 168.963 102.765 169.163 103.225C169.363 103.675 169.468 104.18 169.478 104.74C169.478 104.9 169.418 105.035 169.298 105.145C169.178 105.255 169.038 105.31 168.878 105.31H162.953L162.683 104.275H168.458L168.218 104.485V104.155C168.178 103.745 168.038 103.395 167.798 103.105C167.568 102.805 167.283 102.575 166.943 102.415C166.613 102.255 166.263 102.175 165.893 102.175C165.593 102.175 165.293 102.23 164.993 102.34C164.703 102.44 164.438 102.61 164.198 102.85C163.968 103.08 163.778 103.38 163.628 103.75C163.488 104.12 163.418 104.565 163.418 105.085C163.418 105.665 163.533 106.175 163.763 106.615C164.003 107.055 164.333 107.405 164.753 107.665C165.173 107.915 165.663 108.04 166.223 108.04C166.573 108.04 166.878 107.995 167.138 107.905C167.398 107.815 167.623 107.705 167.813 107.575C168.003 107.435 168.163 107.295 168.293 107.155C168.423 107.065 168.548 107.02 168.668 107.02C168.818 107.02 168.938 107.07 169.028 107.17C169.128 107.27 169.178 107.39 169.178 107.53C169.178 107.7 169.098 107.85 168.938 107.98C168.658 108.29 168.278 108.565 167.798 108.805C167.318 109.035 166.808 109.15 166.268 109.15ZM172.692 109.51C172.692 110.02 172.577 110.455 172.347 110.815C172.127 111.175 171.847 111.455 171.507 111.655C171.167 111.855 170.812 111.955 170.442 111.955C170.272 111.955 170.137 111.9 170.037 111.79C169.927 111.68 169.872 111.55 169.872 111.4V111.295C169.872 111.145 169.922 111.025 170.022 110.935C170.122 110.845 170.247 110.78 170.397 110.74C170.627 110.68 170.822 110.585 170.982 110.455C171.142 110.335 171.267 110.17 171.357 109.96C171.447 109.76 171.492 109.52 171.492 109.24V101.845C171.492 101.675 171.547 101.53 171.657 101.41C171.777 101.29 171.922 101.23 172.092 101.23C172.272 101.23 172.417 101.29 172.527 101.41C172.637 101.53 172.692 101.675 172.692 101.845V109.51ZM172.092 100.12C171.842 100.12 171.657 100.07 171.537 99.97C171.417 99.87 171.357 99.715 171.357 99.505V99.295C171.357 99.085 171.422 98.93 171.552 98.83C171.682 98.73 171.867 98.68 172.107 98.68C172.347 98.68 172.527 98.73 172.647 98.83C172.767 98.93 172.827 99.085 172.827 99.295V99.505C172.827 99.715 172.762 99.87 172.632 99.97C172.512 100.07 172.332 100.12 172.092 100.12ZM181.759 101.17C181.929 101.17 182.069 101.23 182.179 101.35C182.299 101.46 182.359 101.6 182.359 101.77V108.385C182.359 108.555 182.299 108.7 182.179 108.82C182.069 108.94 181.929 109 181.759 109C181.579 109 181.434 108.94 181.324 108.82C181.214 108.7 181.159 108.555 181.159 108.385V106.96L181.444 106.93C181.444 107.15 181.369 107.39 181.219 107.65C181.069 107.91 180.864 108.155 180.604 108.385C180.344 108.605 180.034 108.79 179.674 108.94C179.324 109.08 178.944 109.15 178.534 109.15C177.854 109.15 177.244 108.975 176.704 108.625C176.164 108.265 175.734 107.78 175.414 107.17C175.104 106.56 174.949 105.865 174.949 105.085C174.949 104.295 175.104 103.6 175.414 103C175.734 102.39 176.164 101.915 176.704 101.575C177.244 101.225 177.844 101.05 178.504 101.05C178.934 101.05 179.334 101.12 179.704 101.26C180.074 101.4 180.394 101.59 180.664 101.83C180.944 102.07 181.159 102.335 181.309 102.625C181.469 102.915 181.549 103.205 181.549 103.495L181.159 103.405V101.77C181.159 101.6 181.214 101.46 181.324 101.35C181.434 101.23 181.579 101.17 181.759 101.17ZM178.669 108.04C179.169 108.04 179.609 107.91 179.989 107.65C180.379 107.39 180.679 107.04 180.889 106.6C181.109 106.15 181.219 105.645 181.219 105.085C181.219 104.535 181.109 104.04 180.889 103.6C180.679 103.15 180.379 102.8 179.989 102.55C179.609 102.29 179.169 102.16 178.669 102.16C178.179 102.16 177.739 102.285 177.349 102.535C176.969 102.785 176.669 103.13 176.449 103.57C176.229 104.01 176.119 104.515 176.119 105.085C176.119 105.645 176.224 106.15 176.434 106.6C176.654 107.04 176.954 107.39 177.334 107.65C177.724 107.91 178.169 108.04 178.669 108.04ZM188.288 101.125C188.968 101.125 189.518 101.3 189.938 101.65C190.368 101.99 190.653 102.475 190.793 103.105H190.568L190.673 102.835C190.793 102.555 190.998 102.285 191.288 102.025C191.578 101.765 191.913 101.55 192.293 101.38C192.673 101.21 193.068 101.125 193.478 101.125C194.138 101.125 194.658 101.27 195.038 101.56C195.418 101.84 195.688 102.22 195.848 102.7C196.018 103.17 196.103 103.7 196.103 104.29V108.385C196.103 108.555 196.043 108.7 195.923 108.82C195.813 108.94 195.673 109 195.503 109C195.323 109 195.178 108.94 195.068 108.82C194.958 108.7 194.903 108.555 194.903 108.385V104.32C194.903 103.93 194.843 103.58 194.723 103.27C194.613 102.95 194.428 102.7 194.168 102.52C193.918 102.33 193.573 102.235 193.133 102.235C192.723 102.235 192.348 102.33 192.008 102.52C191.668 102.7 191.398 102.95 191.198 103.27C190.998 103.58 190.898 103.93 190.898 104.32V108.385C190.898 108.555 190.843 108.7 190.733 108.82C190.623 108.94 190.478 109 190.298 109C190.128 109 189.983 108.94 189.863 108.82C189.753 108.7 189.698 108.555 189.698 108.385V104.275C189.698 103.895 189.643 103.555 189.533 103.255C189.433 102.945 189.258 102.7 189.008 102.52C188.758 102.33 188.413 102.235 187.973 102.235C187.573 102.235 187.208 102.33 186.878 102.52C186.548 102.7 186.283 102.945 186.083 103.255C185.883 103.555 185.783 103.895 185.783 104.275V108.385C185.783 108.555 185.723 108.7 185.603 108.82C185.493 108.94 185.353 109 185.183 109C185.013 109 184.868 108.94 184.748 108.82C184.638 108.7 184.583 108.555 184.583 108.385V101.845C184.583 101.675 184.638 101.535 184.748 101.425C184.868 101.305 185.013 101.245 185.183 101.245C185.363 101.245 185.508 101.305 185.618 101.425C185.728 101.535 185.783 101.675 185.783 101.845V102.985L185.453 103.345C185.493 103.085 185.593 102.825 185.753 102.565C185.923 102.305 186.138 102.065 186.398 101.845C186.658 101.625 186.948 101.45 187.268 101.32C187.588 101.19 187.928 101.125 188.288 101.125ZM201.908 109.15C201.108 109.15 200.408 108.98 199.808 108.64C199.208 108.3 198.738 107.835 198.398 107.245C198.068 106.645 197.903 105.955 197.903 105.175C197.903 104.305 198.073 103.565 198.413 102.955C198.763 102.335 199.213 101.865 199.763 101.545C200.323 101.215 200.913 101.05 201.533 101.05C201.993 101.05 202.438 101.135 202.868 101.305C203.298 101.475 203.678 101.725 204.008 102.055C204.338 102.375 204.603 102.765 204.803 103.225C205.003 103.675 205.108 104.18 205.118 104.74C205.118 104.9 205.058 105.035 204.938 105.145C204.818 105.255 204.678 105.31 204.518 105.31H198.593L198.323 104.275H204.098L203.858 104.485V104.155C203.818 103.745 203.678 103.395 203.438 103.105C203.208 102.805 202.923 102.575 202.583 102.415C202.253 102.255 201.903 102.175 201.533 102.175C201.233 102.175 200.933 102.23 200.633 102.34C200.343 102.44 200.078 102.61 199.838 102.85C199.608 103.08 199.418 103.38 199.268 103.75C199.128 104.12 199.058 104.565 199.058 105.085C199.058 105.665 199.173 106.175 199.403 106.615C199.643 107.055 199.973 107.405 200.393 107.665C200.813 107.915 201.303 108.04 201.863 108.04C202.213 108.04 202.518 107.995 202.778 107.905C203.038 107.815 203.263 107.705 203.453 107.575C203.643 107.435 203.803 107.295 203.933 107.155C204.063 107.065 204.188 107.02 204.308 107.02C204.458 107.02 204.578 107.07 204.668 107.17C204.768 107.27 204.818 107.39 204.818 107.53C204.818 107.7 204.738 107.85 204.578 107.98C204.298 108.29 203.918 108.565 203.438 108.805C202.958 109.035 202.448 109.15 201.908 109.15ZM210.777 101.05C211.457 101.05 211.992 101.19 212.382 101.47C212.772 101.75 213.047 102.125 213.207 102.595C213.377 103.065 213.462 103.59 213.462 104.17V108.385C213.462 108.555 213.402 108.7 213.282 108.82C213.172 108.94 213.032 109 212.862 109C212.692 109 212.547 108.94 212.427 108.82C212.317 108.7 212.262 108.555 212.262 108.385V104.2C212.262 103.82 212.202 103.48 212.082 103.18C211.972 102.87 211.782 102.625 211.512 102.445C211.252 102.255 210.892 102.16 210.432 102.16C210.012 102.16 209.627 102.255 209.277 102.445C208.927 102.625 208.647 102.87 208.437 103.18C208.227 103.48 208.122 103.82 208.122 104.2V108.385C208.122 108.555 208.062 108.7 207.942 108.82C207.832 108.94 207.692 109 207.522 109C207.352 109 207.207 108.94 207.087 108.82C206.977 108.7 206.922 108.555 206.922 108.385V101.845C206.922 101.675 206.977 101.535 207.087 101.425C207.207 101.305 207.352 101.245 207.522 101.245C207.702 101.245 207.847 101.305 207.957 101.425C208.067 101.535 208.122 101.675 208.122 101.845V102.91L207.822 103.24C207.872 102.98 207.987 102.72 208.167 102.46C208.347 102.19 208.572 101.95 208.842 101.74C209.112 101.53 209.412 101.365 209.742 101.245C210.072 101.115 210.417 101.05 210.777 101.05ZM215.381 101.29H218.906C219.066 101.29 219.196 101.345 219.296 101.455C219.406 101.565 219.461 101.695 219.461 101.845C219.461 102.005 219.406 102.14 219.296 102.25C219.196 102.35 219.066 102.4 218.906 102.4H215.381C215.231 102.4 215.101 102.345 214.991 102.235C214.881 102.125 214.826 101.99 214.826 101.83C214.826 101.68 214.881 101.555 214.991 101.455C215.101 101.345 215.231 101.29 215.381 101.29ZM216.956 99.25C217.126 99.25 217.266 99.31 217.376 99.43C217.486 99.54 217.541 99.68 217.541 99.85V107.095C217.541 107.335 217.576 107.515 217.646 107.635C217.716 107.755 217.806 107.84 217.916 107.89C218.036 107.93 218.151 107.95 218.261 107.95C218.361 107.95 218.446 107.935 218.516 107.905C218.596 107.865 218.686 107.845 218.786 107.845C218.886 107.845 218.976 107.895 219.056 107.995C219.146 108.085 219.191 108.205 219.191 108.355C219.191 108.535 219.086 108.69 218.876 108.82C218.666 108.94 218.431 109 218.171 109C218.031 109 217.856 108.99 217.646 108.97C217.446 108.95 217.246 108.885 217.046 108.775C216.846 108.665 216.676 108.485 216.536 108.235C216.406 107.975 216.341 107.615 216.341 107.155V99.85C216.341 99.68 216.401 99.54 216.521 99.43C216.641 99.31 216.786 99.25 216.956 99.25ZM228.422 105.1C228.422 105.88 228.247 106.575 227.897 107.185C227.557 107.795 227.092 108.275 226.502 108.625C225.922 108.975 225.267 109.15 224.537 109.15C223.807 109.15 223.147 108.975 222.557 108.625C221.967 108.275 221.497 107.795 221.147 107.185C220.807 106.575 220.637 105.88 220.637 105.1C220.637 104.32 220.807 103.625 221.147 103.015C221.497 102.405 221.967 101.925 222.557 101.575C223.147 101.225 223.807 101.05 224.537 101.05C225.267 101.05 225.922 101.225 226.502 101.575C227.092 101.925 227.557 102.405 227.897 103.015C228.247 103.625 228.422 104.32 228.422 105.1ZM227.222 105.1C227.222 104.52 227.102 104.01 226.862 103.57C226.632 103.13 226.312 102.785 225.902 102.535C225.502 102.285 225.047 102.16 224.537 102.16C224.027 102.16 223.567 102.285 223.157 102.535C222.757 102.785 222.437 103.13 222.197 103.57C221.957 104.01 221.837 104.52 221.837 105.1C221.837 105.67 221.957 106.175 222.197 106.615C222.437 107.055 222.757 107.405 223.157 107.665C223.567 107.915 224.027 108.04 224.537 108.04C225.047 108.04 225.502 107.915 225.902 107.665C226.312 107.405 226.632 107.055 226.862 106.615C227.102 106.175 227.222 105.67 227.222 105.1ZM238.198 100.06L234.673 108.64C234.633 108.76 234.563 108.855 234.463 108.925C234.363 108.995 234.258 109.03 234.148 109.03C233.958 109.03 233.818 108.98 233.728 108.88C233.638 108.78 233.593 108.66 233.593 108.52C233.583 108.45 233.593 108.375 233.623 108.295L237.508 98.845C237.558 98.705 237.633 98.605 237.733 98.545C237.843 98.475 237.963 98.445 238.093 98.455C238.223 98.455 238.338 98.49 238.438 98.56C238.548 98.63 238.623 98.725 238.663 98.845L242.533 108.205C242.563 108.285 242.578 108.365 242.578 108.445C242.578 108.625 242.518 108.77 242.398 108.88C242.278 108.98 242.143 109.03 241.993 109.03C241.873 109.03 241.763 108.995 241.663 108.925C241.563 108.855 241.488 108.755 241.438 108.625L237.868 100.045L238.198 100.06ZM235.423 106.195L235.933 105.025H240.388L240.613 106.195H235.423ZM247.866 101.05C248.546 101.05 249.081 101.19 249.471 101.47C249.861 101.75 250.136 102.125 250.296 102.595C250.466 103.065 250.551 103.59 250.551 104.17V108.385C250.551 108.555 250.491 108.7 250.371 108.82C250.261 108.94 250.121 109 249.951 109C249.781 109 249.636 108.94 249.516 108.82C249.406 108.7 249.351 108.555 249.351 108.385V104.2C249.351 103.82 249.291 103.48 249.171 103.18C249.061 102.87 248.871 102.625 248.601 102.445C248.341 102.255 247.981 102.16 247.521 102.16C247.101 102.16 246.716 102.255 246.366 102.445C246.016 102.625 245.736 102.87 245.526 103.18C245.316 103.48 245.211 103.82 245.211 104.2V108.385C245.211 108.555 245.151 108.7 245.031 108.82C244.921 108.94 244.781 109 244.611 109C244.441 109 244.296 108.94 244.176 108.82C244.066 108.7 244.011 108.555 244.011 108.385V101.845C244.011 101.675 244.066 101.535 244.176 101.425C244.296 101.305 244.441 101.245 244.611 101.245C244.791 101.245 244.936 101.305 245.046 101.425C245.156 101.535 245.211 101.675 245.211 101.845V102.91L244.911 103.24C244.961 102.98 245.076 102.72 245.256 102.46C245.436 102.19 245.661 101.95 245.931 101.74C246.201 101.53 246.501 101.365 246.831 101.245C247.161 101.115 247.506 101.05 247.866 101.05ZM259.161 101.17C259.331 101.17 259.471 101.23 259.581 101.35C259.701 101.46 259.761 101.6 259.761 101.77V108.385C259.761 108.555 259.701 108.7 259.581 108.82C259.471 108.94 259.331 109 259.161 109C258.981 109 258.836 108.94 258.726 108.82C258.616 108.7 258.561 108.555 258.561 108.385V106.96L258.846 106.93C258.846 107.15 258.771 107.39 258.621 107.65C258.471 107.91 258.266 108.155 258.006 108.385C257.746 108.605 257.436 108.79 257.076 108.94C256.726 109.08 256.346 109.15 255.936 109.15C255.256 109.15 254.646 108.975 254.106 108.625C253.566 108.265 253.136 107.78 252.816 107.17C252.506 106.56 252.351 105.865 252.351 105.085C252.351 104.295 252.506 103.6 252.816 103C253.136 102.39 253.566 101.915 254.106 101.575C254.646 101.225 255.246 101.05 255.906 101.05C256.336 101.05 256.736 101.12 257.106 101.26C257.476 101.4 257.796 101.59 258.066 101.83C258.346 102.07 258.561 102.335 258.711 102.625C258.871 102.915 258.951 103.205 258.951 103.495L258.561 103.405V101.77C258.561 101.6 258.616 101.46 258.726 101.35C258.836 101.23 258.981 101.17 259.161 101.17ZM256.071 108.04C256.571 108.04 257.011 107.91 257.391 107.65C257.781 107.39 258.081 107.04 258.291 106.6C258.511 106.15 258.621 105.645 258.621 105.085C258.621 104.535 258.511 104.04 258.291 103.6C258.081 103.15 257.781 102.8 257.391 102.55C257.011 102.29 256.571 102.16 256.071 102.16C255.581 102.16 255.141 102.285 254.751 102.535C254.371 102.785 254.071 103.13 253.851 103.57C253.631 104.01 253.521 104.515 253.521 105.085C253.521 105.645 253.626 106.15 253.836 106.6C254.056 107.04 254.356 107.39 254.736 107.65C255.126 107.91 255.571 108.04 256.071 108.04ZM263.305 108.385C263.305 108.555 263.245 108.7 263.125 108.82C263.005 108.94 262.86 109 262.69 109C262.52 109 262.38 108.94 262.27 108.82C262.16 108.7 262.105 108.555 262.105 108.385V98.5C262.105 98.33 262.16 98.19 262.27 98.08C262.39 97.96 262.535 97.9 262.705 97.9C262.885 97.9 263.03 97.96 263.14 98.08C263.25 98.19 263.305 98.33 263.305 98.5V108.385ZM271.218 101.125C271.388 101.125 271.528 101.185 271.638 101.305C271.758 101.415 271.818 101.555 271.818 101.725V108.265C271.818 109.105 271.653 109.8 271.323 110.35C270.993 110.91 270.548 111.325 269.988 111.595C269.438 111.865 268.813 112 268.113 112C267.723 112 267.348 111.96 266.988 111.88C266.628 111.8 266.333 111.695 266.103 111.565C265.913 111.475 265.778 111.36 265.698 111.22C265.628 111.09 265.618 110.95 265.668 110.8C265.738 110.62 265.838 110.495 265.968 110.425C266.108 110.355 266.253 110.355 266.403 110.425C266.563 110.495 266.793 110.59 267.093 110.71C267.403 110.84 267.748 110.905 268.128 110.905C268.648 110.905 269.093 110.805 269.463 110.605C269.833 110.405 270.118 110.11 270.318 109.72C270.518 109.34 270.618 108.865 270.618 108.295V107.23L270.798 107.605C270.638 107.915 270.423 108.185 270.153 108.415C269.883 108.645 269.573 108.825 269.223 108.955C268.873 109.085 268.488 109.15 268.068 109.15C267.498 109.15 267.013 109.03 266.613 108.79C266.223 108.54 265.923 108.2 265.713 107.77C265.513 107.33 265.413 106.825 265.413 106.255V101.725C265.413 101.555 265.468 101.415 265.578 101.305C265.698 101.185 265.843 101.125 266.013 101.125C266.193 101.125 266.338 101.185 266.448 101.305C266.558 101.415 266.613 101.555 266.613 101.725V105.985C266.613 106.665 266.763 107.18 267.063 107.53C267.363 107.87 267.828 108.04 268.458 108.04C268.858 108.04 269.218 107.95 269.538 107.77C269.868 107.59 270.128 107.345 270.318 107.035C270.518 106.715 270.618 106.365 270.618 105.985V101.725C270.618 101.555 270.673 101.415 270.783 101.305C270.893 101.185 271.038 101.125 271.218 101.125ZM273.741 101.29H277.266C277.426 101.29 277.556 101.345 277.656 101.455C277.766 101.565 277.821 101.695 277.821 101.845C277.821 102.005 277.766 102.14 277.656 102.25C277.556 102.35 277.426 102.4 277.266 102.4H273.741C273.591 102.4 273.461 102.345 273.351 102.235C273.241 102.125 273.186 101.99 273.186 101.83C273.186 101.68 273.241 101.555 273.351 101.455C273.461 101.345 273.591 101.29 273.741 101.29ZM275.316 99.25C275.486 99.25 275.626 99.31 275.736 99.43C275.846 99.54 275.901 99.68 275.901 99.85V107.095C275.901 107.335 275.936 107.515 276.006 107.635C276.076 107.755 276.166 107.84 276.276 107.89C276.396 107.93 276.511 107.95 276.621 107.95C276.721 107.95 276.806 107.935 276.876 107.905C276.956 107.865 277.046 107.845 277.146 107.845C277.246 107.845 277.336 107.895 277.416 107.995C277.506 108.085 277.551 108.205 277.551 108.355C277.551 108.535 277.446 108.69 277.236 108.82C277.026 108.94 276.791 109 276.531 109C276.391 109 276.216 108.99 276.006 108.97C275.806 108.95 275.606 108.885 275.406 108.775C275.206 108.665 275.036 108.485 274.896 108.235C274.766 107.975 274.701 107.615 274.701 107.155V99.85C274.701 99.68 274.761 99.54 274.881 99.43C275.001 99.31 275.146 99.25 275.316 99.25ZM280.645 108.385C280.645 108.555 280.585 108.7 280.465 108.82C280.355 108.94 280.215 109 280.045 109C279.865 109 279.72 108.94 279.61 108.82C279.5 108.7 279.445 108.555 279.445 108.385V101.725C279.445 101.555 279.5 101.415 279.61 101.305C279.73 101.185 279.875 101.125 280.045 101.125C280.215 101.125 280.355 101.185 280.465 101.305C280.585 101.415 280.645 101.555 280.645 101.725V108.385ZM280.045 100.12C279.795 100.12 279.61 100.07 279.49 99.97C279.37 99.87 279.31 99.715 279.31 99.505V99.295C279.31 99.085 279.375 98.93 279.505 98.83C279.635 98.73 279.82 98.68 280.06 98.68C280.3 98.68 280.48 98.73 280.6 98.83C280.72 98.93 280.78 99.085 280.78 99.295V99.505C280.78 99.715 280.715 99.87 280.585 99.97C280.465 100.07 280.285 100.12 280.045 100.12ZM286.25 101.05C286.76 101.05 287.22 101.105 287.63 101.215C288.04 101.325 288.365 101.475 288.605 101.665C288.845 101.855 288.965 102.07 288.965 102.31C288.965 102.44 288.92 102.565 288.83 102.685C288.74 102.805 288.62 102.865 288.47 102.865C288.33 102.865 288.215 102.84 288.125 102.79C288.045 102.74 287.965 102.675 287.885 102.595C287.815 102.515 287.715 102.445 287.585 102.385C287.465 102.315 287.29 102.26 287.06 102.22C286.83 102.18 286.6 102.16 286.37 102.16C285.82 102.16 285.335 102.29 284.915 102.55C284.505 102.81 284.18 103.16 283.94 103.6C283.7 104.04 283.58 104.54 283.58 105.1C283.58 105.66 283.695 106.16 283.925 106.6C284.155 107.04 284.475 107.39 284.885 107.65C285.295 107.91 285.77 108.04 286.31 108.04C286.66 108.04 286.94 108.01 287.15 107.95C287.36 107.89 287.535 107.82 287.675 107.74C287.855 107.64 287.99 107.54 288.08 107.44C288.18 107.34 288.31 107.29 288.47 107.29C288.64 107.29 288.77 107.345 288.86 107.455C288.96 107.565 289.01 107.7 289.01 107.86C289.01 108.04 288.885 108.23 288.635 108.43C288.385 108.63 288.045 108.8 287.615 108.94C287.195 109.08 286.715 109.15 286.175 109.15C285.415 109.15 284.75 108.975 284.18 108.625C283.61 108.265 283.165 107.78 282.845 107.17C282.535 106.55 282.38 105.86 282.38 105.1C282.38 104.34 282.54 103.655 282.86 103.045C283.19 102.435 283.645 101.95 284.225 101.59C284.805 101.23 285.48 101.05 286.25 101.05ZM290.144 107.77C290.054 107.64 290.014 107.505 290.024 107.365C290.034 107.215 290.119 107.085 290.279 106.975C290.379 106.905 290.494 106.875 290.624 106.885C290.764 106.895 290.889 106.96 290.999 107.08C291.279 107.41 291.599 107.675 291.959 107.875C292.319 108.065 292.759 108.16 293.279 108.16C293.519 108.15 293.759 108.11 293.999 108.04C294.239 107.97 294.439 107.85 294.599 107.68C294.769 107.5 294.854 107.265 294.854 106.975C294.854 106.695 294.769 106.475 294.599 106.315C294.429 106.145 294.209 106.01 293.939 105.91C293.669 105.8 293.374 105.705 293.054 105.625C292.724 105.535 292.399 105.435 292.079 105.325C291.759 105.205 291.469 105.06 291.209 104.89C290.959 104.71 290.754 104.49 290.594 104.23C290.444 103.96 290.369 103.635 290.369 103.255C290.369 102.805 290.489 102.415 290.729 102.085C290.979 101.755 291.309 101.5 291.719 101.32C292.139 101.14 292.594 101.05 293.084 101.05C293.364 101.05 293.654 101.085 293.954 101.155C294.264 101.215 294.564 101.325 294.854 101.485C295.144 101.635 295.399 101.845 295.619 102.115C295.709 102.215 295.759 102.34 295.769 102.49C295.779 102.64 295.714 102.775 295.574 102.895C295.464 102.975 295.339 103.01 295.199 103C295.069 102.99 294.959 102.94 294.869 102.85C294.659 102.6 294.394 102.41 294.074 102.28C293.764 102.14 293.419 102.07 293.039 102.07C292.799 102.07 292.564 102.105 292.334 102.175C292.104 102.245 291.909 102.365 291.749 102.535C291.599 102.695 291.524 102.92 291.524 103.21C291.534 103.48 291.624 103.7 291.794 103.87C291.964 104.04 292.194 104.18 292.484 104.29C292.774 104.39 293.094 104.49 293.444 104.59C293.764 104.67 294.069 104.765 294.359 104.875C294.659 104.975 294.929 105.11 295.169 105.28C295.409 105.45 295.599 105.67 295.739 105.94C295.879 106.2 295.949 106.53 295.949 106.93C295.949 107.39 295.819 107.79 295.559 108.13C295.299 108.46 294.954 108.715 294.524 108.895C294.104 109.065 293.649 109.15 293.159 109.15C292.609 109.15 292.064 109.045 291.524 108.835C290.994 108.625 290.534 108.27 290.144 107.77Z" fill="#4F7297"></path>
<defs>
<filter id="filter0_d_7145_7152" x="10" y="30.5" width="88" height="73.5" filterUnits="userSpaceOnUse" color-interpolation-filters="sRGB">
<feFlood flood-opacity="0" result="BackgroundImageFix"></feFlood>
<feColorMatrix in="SourceAlpha" type="matrix" values="0 0 0 0 0 0 0 0 0 0 0 0 0 0 0 0 0 0 127 0" result="hardAlpha"></feColorMatrix>
<feOffset dy="4"></feOffset>
<feGaussianBlur stdDeviation="2"></feGaussianBlur>
<feComposite in2="hardAlpha" operator="out"></feComposite>
<feColorMatrix type="matrix" values="0 0 0 0 0 0 0 0 0 0 0 0 0 0 0 0 0 0 0.25 0"></feColorMatrix>
<feBlend mode="normal" in2="BackgroundImageFix" result="effect1_dropShadow_7145_7152"></feBlend>
<feBlend mode="normal" in="SourceGraphic" in2="effect1_dropShadow_7145_7152" result="shape"></feBlend>
</filter>
<linearGradient id="paint0_linear_7145_7152" x1="60.8759" y1="33.185" x2="104.826" y2="88.1097" gradientUnits="userSpaceOnUse">
<stop stop-color="#55A8FD"></stop>
<stop offset="0.58" stop-color="#4097FA"></stop>
<stop offset="1" stop-color="#2A82F2"></stop>
</linearGradient>
<linearGradient id="paint1_linear_7145_7152" x1="19" y1="104" x2="88" y2="61" gradientUnits="userSpaceOnUse">
<stop stop-color="#064AAF"></stop>
<stop offset="0.55" stop-color="#1472E7"></stop>
<stop offset="1" stop-color="#2D8EF7"></stop>
</linearGradient>
<linearGradient id="paint2_linear_7145_7152" x1="22" y1="33" x2="88" y2="93" gradientUnits="userSpaceOnUse">
<stop stop-color="#82C9FE"></stop>
<stop offset="0.52" stop-color="#74BDFC"></stop>
<stop offset="1" stop-color="#64B1FA"></stop>
</linearGradient>
<linearGradient id="paint3_linear_7145_7152" x1="205" y1="46.5" x2="204.5" y2="94" gradientUnits="userSpaceOnUse">
<stop stop-color="#04319A"></stop>
<stop offset="1" stop-color="#082157"></stop>
</linearGradient>
</defs>
</svg>